<svg width="48" height="56" viewBox="0 0 48 56" fill="none" xmlns="http://www.w3.org/2000/svg">
<mask id="path-1-inside-1_8532_189888" fill="white">
<path d="M24 0C37.2548 0 48 10.7452 48 24C48 35.9532 39.2613 45.8638 27.8242 47.6953L23.3193 56L18.873 47.4492C8.0818 45.1007 0 35.4951 0 24C0 10.7452 10.7452 0 24 0Z"/>
</mask>
<path d="M24 0C37.2548 0 48 10.7452 48 24C48 35.9532 39.2613 45.8638 27.8242 47.6953L23.3193 56L18.873 47.4492C8.0818 45.1007 0 35.4951 0 24C0 10.7452 10.7452 0 24 0Z" fill="white"/>
<path d="M27.8242 47.6953L27.6661 46.7079L27.18 46.7857L26.9452 47.2185L27.8242 47.6953ZM23.3193 56L22.4321 56.4613L23.3007 58.1317L24.1983 56.4768L23.3193 56ZM18.873 47.4492L19.7603 46.9879L19.5439 46.5718L19.0857 46.4721L18.873 47.4492ZM24 0V1C36.7025 1 47 11.2975 47 24H48H49C49 10.1929 37.8071 -1 24 -1V0ZM48 24H47C47 35.4541 38.6259 44.9528 27.6661 46.7079L27.8242 47.6953L27.9823 48.6827C39.8967 46.7748 49 36.4523 49 24H48ZM27.8242 47.6953L26.9452 47.2185L22.4403 55.5232L23.3193 56L24.1983 56.4768L28.7032 48.1721L27.8242 47.6953ZM23.3193 56L24.2066 55.5387L19.7603 46.9879L18.873 47.4492L17.9858 47.9106L22.4321 56.4613L23.3193 56ZM18.873 47.4492L19.0857 46.4721C8.74423 44.2215 1 35.0148 1 24H0H-1C-1 35.9754 7.41938 45.98 18.6604 48.4263L18.873 47.4492ZM0 24H1C1 11.2975 11.2975 1 24 1V0V-1C10.1929 -1 -1 10.1929 -1 24H0Z" fill="#313131" mask="url(#path-1-inside-1_8532_189888)"/>
<rect x="4" y="4" width="40" height="40" rx="20" fill="#C3FFAB"/>
<path d="M8.71149 22.6228C11.7217 21.2245 16.5476 21.2245 16.5476 21.2245L20.703 18.5802C21.8134 17.8736 23.1022 17.4983 24.4183 17.4983H36.7446C37.0835 17.4983 37.4175 17.5792 37.7189 17.7343C38.0202 17.8894 38.2802 18.1141 38.4772 18.3899L40.0062 20.5304C40.3286 20.9818 40.5019 21.5228 40.502 22.0775V25.7709C40.502 26.5321 39.9647 27.1875 39.2182 27.3368L35.1788 28.1447H10.7354L7.49818 27.0801V24.5472C7.49812 23.7254 7.96614 22.969 8.71149 22.6228Z" fill="#76FF3F"/>
<path d="M8.84217 26.548C9.06457 26.548 9.26558 26.4154 9.33092 26.2257C9.92194 24.5081 11.5386 23.354 13.3537 23.354C15.1689 23.354 16.7855 24.5081 17.3766 26.2258C17.4418 26.4154 17.6428 26.5094 17.8653 26.5094H29.6026C29.825 26.5094 30.026 26.4154 30.0913 26.2257C30.6823 24.5081 32.299 23.354 34.1141 23.354C35.6929 23.354 37.134 24.2216 37.8752 25.6183C37.9596 25.7772 38.1321 25.8761 38.3252 25.8761C38.3615 25.8761 38.3977 25.8725 38.4332 25.8654C38.5661 25.8385 38.6856 25.7666 38.7716 25.6617C38.8575 25.5569 38.9047 25.4255 38.905 25.29V18.989L40.0061 20.5307C40.3286 20.9821 40.5019 21.523 40.502 22.0777V25.7711C40.502 26.5323 39.9647 27.1877 39.2182 27.337L35.1788 28.1449H8.5628C7.97484 28.1449 7.49818 27.6682 7.49818 27.0803V26.548H8.84217Z" fill="#33BA52"/>
<path d="M34.1138 30.2753C32.6438 30.2753 31.4521 29.0836 31.4521 27.6137C31.4521 26.1437 32.6438 24.952 34.1138 24.952C35.5837 24.952 36.7754 26.1437 36.7754 27.6137C36.7754 29.0836 35.5837 30.2753 34.1138 30.2753Z" fill="#5D5360"/>
<path d="M13.354 30.2753C11.884 30.2753 10.6924 29.0836 10.6924 27.6137C10.6924 26.1437 11.884 24.952 13.354 24.952C14.824 24.952 16.0156 26.1437 16.0156 27.6137C16.0156 29.0836 14.824 30.2753 13.354 30.2753Z" fill="#5D5360"/>
<path d="M36.3907 21.2245H16.5476L20.7029 18.5802C21.8133 17.8736 23.1021 17.4983 24.4182 17.4983H35.1787L36.8529 20.4281C37.0557 20.783 36.7994 21.2245 36.3907 21.2245Z" fill="#8BB3EA"/>
<path d="M21.5604 19.9255C22.4143 19.3817 23.4057 19.093 24.418 19.0935H36.0913L36.8529 20.4263C37.0557 20.7812 36.7995 21.2228 36.3908 21.2228H19.5219L21.5604 19.9255Z" fill="#739AD6"/>
<path d="M34.4903 28.4871C34.4249 28.4872 34.3601 28.4743 34.2996 28.4493C34.2392 28.4242 34.1843 28.3875 34.1381 28.3412L33.3853 27.5884C33.2919 27.495 33.2394 27.3683 33.2394 27.2362C33.2394 27.1042 33.2919 26.9775 33.3853 26.8841C33.4787 26.7907 33.6053 26.7382 33.7374 26.7382C33.8695 26.7382 33.9962 26.7907 34.0896 26.8841L34.8424 27.6369C34.9358 27.7303 34.9883 27.8569 34.9883 27.989C34.9883 28.1211 34.9358 28.2478 34.8424 28.3412C34.7962 28.3875 34.7414 28.4243 34.6809 28.4493C34.6205 28.4743 34.5557 28.4872 34.4903 28.4871ZM13.3292 28.3412C13.2319 28.4385 13.1044 28.4871 12.977 28.4871C12.8496 28.4871 12.7221 28.4385 12.6249 28.3412C12.5315 28.2478 12.479 28.1211 12.479 27.989C12.479 27.8569 12.5315 27.7303 12.6249 27.6369L13.3776 26.8841C13.4239 26.8378 13.4788 26.8011 13.5392 26.7761C13.5996 26.751 13.6644 26.7382 13.7298 26.7382C13.7952 26.7382 13.86 26.751 13.9204 26.7761C13.9808 26.8011 14.0357 26.8378 14.0819 26.8841C14.1753 26.9775 14.2278 27.1042 14.2278 27.2362C14.2278 27.3683 14.1753 27.495 14.0819 27.5884L13.3292 28.3412Z" fill="black"/>
<path d="M8.50177 22.1708C11.3147 20.8643 15.5461 20.7393 16.4007 20.7274L20.4356 18.1598C21.6256 17.4017 23.0073 16.9993 24.4183 17H36.7446C37.1627 17.0004 37.5747 17.1004 37.9465 17.2918C38.3183 17.4831 38.6391 17.7602 38.8825 18.1002L40.4114 20.2408C40.7965 20.7798 41 21.4149 41 22.0773V25.6948C41 26.7307 40.2267 27.6223 39.2013 27.7688L37.2429 28.0485C37.0296 29.5849 35.7082 30.7718 34.1141 30.7718C32.7326 30.7718 31.5562 29.8803 31.1279 28.6426H16.34C15.9117 29.8803 14.7352 30.7718 13.3537 30.7718C11.6115 30.7718 10.1941 29.3544 10.1941 27.6122C10.1941 25.8699 11.6115 24.4525 13.3537 24.4525C15.096 24.4525 16.5134 25.8699 16.5134 27.6122C16.5134 27.6237 16.5127 27.6349 16.5125 27.6464H30.9553C30.9552 27.6349 30.9545 27.6237 30.9545 27.6122C30.9545 25.8699 32.3719 24.4525 34.1141 24.4525C35.6628 24.4525 36.9539 25.5728 37.2219 27.0453L39.0605 26.7827C39.5984 26.7059 40.004 26.2382 40.004 25.6948V23.3193H39.4374C39.3053 23.3193 39.1786 23.2669 39.0852 23.1735C38.9918 23.0801 38.9394 22.9534 38.9394 22.8213C38.9394 22.6892 38.9918 22.5625 39.0852 22.4691C39.1786 22.3757 39.3053 22.3232 39.4374 22.3232H40.0039V22.0773C40.0047 21.6262 39.8637 21.1863 39.6009 20.8197L38.072 18.6792C37.9209 18.4681 37.7216 18.296 37.4908 18.1773C37.26 18.0585 37.0042 17.9964 36.7446 17.9961H36.0369L37.2853 20.1807C37.4697 20.5033 37.4684 20.8877 37.2819 21.2091C37.0954 21.5304 36.7622 21.7223 36.3907 21.7223H16.5476C16.5004 21.7223 11.7949 21.7394 8.92126 23.0741C8.75505 23.1517 8.60376 23.2579 8.47428 23.3878H9.09505C9.22713 23.3878 9.35382 23.4403 9.44722 23.5337C9.54062 23.6271 9.59309 23.7538 9.59309 23.8859C9.59309 24.0179 9.54062 24.1446 9.44722 24.238C9.35382 24.3314 9.22713 24.3839 9.09505 24.3839H8.00512C7.99981 24.4378 7.99609 24.492 7.99609 24.5469V27.0797C7.99609 27.3922 8.25029 27.6464 8.56273 27.6464C8.69482 27.6464 8.8215 27.6988 8.91491 27.7922C9.00831 27.8856 9.06078 28.0123 9.06078 28.1444C9.06078 28.2765 9.00831 28.4032 8.91491 28.4966C8.8215 28.59 8.69482 28.6425 8.56273 28.6425C7.70111 28.6425 7.00006 27.9414 7 27.0798V24.5469C7.00006 23.5273 7.58949 22.5945 8.50177 22.1708ZM13.3537 25.4486C12.1607 25.4486 11.1901 26.4191 11.1901 27.6122C11.1901 28.8052 12.1607 29.7757 13.3537 29.7757C14.5467 29.7757 15.5172 28.8052 15.5172 27.6122C15.5172 26.4191 14.5467 25.4486 13.3537 25.4486ZM34.1141 25.4486C32.9212 25.4486 31.9506 26.4191 31.9506 27.6122C31.9506 28.8052 32.9212 29.7757 34.1141 29.7757C35.3071 29.7757 36.2777 28.8052 36.2777 27.6122C36.2777 26.4191 35.3071 25.4486 34.1141 25.4486ZM20.9704 19.0002L18.2579 20.7263H25.1651L25.5551 17.9962H24.4183C23.1968 17.9956 22.0006 18.3439 20.9704 19.0002ZM26.5613 17.9962L26.1713 20.7263H30.9545V17.9962H26.5613ZM36.4204 20.7092C36.4303 20.6921 36.4245 20.6818 36.4206 20.675L34.8898 17.9961H31.9506V20.7262H36.3908C36.3986 20.7262 36.4105 20.7262 36.4204 20.7092Z" fill="black"/>
<path d="M29.3232 25.5167C29.4553 25.5167 29.582 25.5692 29.6754 25.6626C29.7688 25.756 29.8213 25.8827 29.8213 26.0148C29.8213 26.1469 29.7688 26.2735 29.6754 26.3669C29.582 26.4603 29.4553 26.5128 29.3232 26.5128H18.1446C18.0125 26.5128 17.8858 26.4603 17.7924 26.3669C17.699 26.2735 17.6465 26.1469 17.6465 26.0148C17.6465 25.8827 17.699 25.756 17.7924 25.6626C17.8858 25.5692 18.0125 25.5167 18.1446 25.5167H29.3232Z" fill="black"/>
</svg>
