<svg width="16" height="16" viewBox="0 0 16 16" fill="none" xmlns="http://www.w3.org/2000/svg">
<path d="M9.58266 11.5852C9.99722 11.5852 10.3333 11.2492 10.3333 10.8346C10.3333 10.4201 9.99722 10.084 9.58266 10.084C9.1681 10.084 8.83203 10.4201 8.83203 10.8346C8.83203 11.2492 9.1681 11.5852 9.58266 11.5852Z" stroke="#236CFF" stroke-miterlimit="10" stroke-linecap="round" stroke-linejoin="round"/>
<path d="M6.41469 8.41825C6.82925 8.41825 7.16532 8.08218 7.16532 7.66762C7.16532 7.25306 6.82925 6.91699 6.41469 6.91699C6.00013 6.91699 5.66406 7.25306 5.66406 7.66762C5.66406 8.08218 6.00013 8.41825 6.41469 8.41825Z" stroke="#236CFF" stroke-miterlimit="10" stroke-linecap="round" stroke-linejoin="round"/>
<path d="M8.93809 7.59226L7.08926 10.8346M12.7481 9.25112C12.7481 11.8739 10.6219 14.0002 7.99905 14.0002C5.37623 14.0002 3.25 11.874 3.25 9.25112C3.25 5.47481 7.99905 2 7.99905 2C7.99905 2 12.7481 5.47481 12.7481 9.25112Z" stroke="#236CFF" stroke-miterlimit="10" stroke-linecap="round" stroke-linejoin="round"/>
</svg>
