<svg width="16" height="18" viewBox="0 0 16 18" fill="none" xmlns="http://www.w3.org/2000/svg">
<path fill-rule="evenodd" clip-rule="evenodd" d="M4 13.8609H2.66667C2.29867 13.8609 2 13.5498 2 13.1665V11.0831C2 10.6998 2.29867 10.3887 2.66667 10.3887H4C4.368 10.3887 4.66667 10.6998 4.66667 11.0831V13.1665C4.66667 13.5498 4.368 13.8609 4 13.8609Z" fill="#CECFD2"/>
<path fill-rule="evenodd" clip-rule="evenodd" d="M8.66797 13.8608H7.33464C6.96664 13.8608 6.66797 13.5497 6.66797 13.1664V8.30528C6.66797 7.92195 6.96664 7.61084 7.33464 7.61084H8.66797C9.03597 7.61084 9.33464 7.92195 9.33464 8.30528V13.1664C9.33464 13.5497 9.03597 13.8608 8.66797 13.8608Z" fill="#CECFD2"/>
<path fill-rule="evenodd" clip-rule="evenodd" d="M13.332 13.8609H11.9987C11.6307 13.8609 11.332 13.5498 11.332 13.1665V4.83312C11.332 4.44978 11.6307 4.13867 11.9987 4.13867H13.332C13.7 4.13867 13.9987 4.44978 13.9987 4.83312V13.1665C13.9987 13.5498 13.7 13.8609 13.332 13.8609Z" fill="#CECFD2"/>
</svg>
