<svg width="16" height="16" viewBox="0 0 16 16" fill="none" xmlns="http://www.w3.org/2000/svg">
<path d="M12.2426 3.75736C14.5858 6.10051 14.5858 9.89949 12.2426 12.2426C9.89948 14.5858 6.10049 14.5858 3.75736 12.2426C1.41421 9.89948 1.41421 6.10049 3.75736 3.75736C6.10051 1.41421 9.89949 1.41421 12.2426 3.75736" stroke="#FF2727" stroke-linecap="round" stroke-linejoin="round"/>
<path d="M11.6086 12.687C11.4906 12.3897 11.3073 12.123 11.0726 11.9057C10.676 11.5377 10.1573 11.333 9.61596 11.333C8.71329 11.333 7.28663 11.333 6.38396 11.333C5.84263 11.333 5.32396 11.5377 4.92663 11.9057C4.69196 12.123 4.50929 12.3897 4.39062 12.687" stroke="#FF2727" stroke-linecap="round" stroke-linejoin="round"/>
<path d="M8.94411 7.05752C9.46481 7.57822 9.46481 8.42244 8.94411 8.94314C8.42341 9.46384 7.57919 9.46384 7.05849 8.94314C6.53779 8.42244 6.53779 7.57822 7.05849 7.05752C7.57919 6.53682 8.42341 6.53682 8.94411 7.05752" stroke="#FF2727" stroke-linecap="round" stroke-linejoin="round"/>
<path d="M8.0013 2V3.33333" stroke="#FF2727" stroke-linecap="round" stroke-linejoin="round"/>
<path d="M10.9983 2.80664L10.4183 3.80664" stroke="#FF2727" stroke-linecap="round" stroke-linejoin="round"/>
<path d="M5.00036 2.80664L5.58036 3.80664" stroke="#FF2727" stroke-linecap="round" stroke-linejoin="round"/>
<path d="M2.80859 5.00036L3.80859 5.58036" stroke="#FF2727" stroke-linecap="round" stroke-linejoin="round"/>
<path d="M14 8.00033H13" stroke="#FF2727" stroke-linecap="round" stroke-linejoin="round"/>
<path d="M3 8.00033H2" stroke="#FF2727" stroke-linecap="round" stroke-linejoin="round"/>
<path d="M9.19141 7.42L13.1914 5" stroke="#FF2727" stroke-linecap="round" stroke-linejoin="round"/>
</svg>
