<svg width="16" height="16" viewBox="0 0 16 16" fill="none" xmlns="http://www.w3.org/2000/svg">
<path d="M3.75464 9.12133V3.62933C3.75464 2.72933 4.48397 2 5.38397 2C6.28397 2 7.0133 2.72933 7.0133 3.62933V9.12133V9.12267C7.6693 9.61867 8.09997 10.3973 8.09997 11.2827C8.09997 12.784 6.88397 14 5.38397 14C3.88397 14 2.66797 12.784 2.66797 11.284C2.66797 10.3987 3.09864 9.61867 3.75464 9.124" stroke="#236CFF" stroke-linecap="round" stroke-linejoin="round"/>
<path d="M10 4.66634H13.3333" stroke="#236CFF" stroke-linecap="round" stroke-linejoin="round"/>
<path d="M10 2.66634H13.3333" stroke="#236CFF" stroke-linecap="round" stroke-linejoin="round"/>
<path d="M10 6.66634H13.3333" stroke="#236CFF" stroke-linecap="round" stroke-linejoin="round"/>
<path d="M10 8.66634H13.3333" stroke="#236CFF" stroke-linecap="round" stroke-linejoin="round"/>
<path fill-rule="evenodd" clip-rule="evenodd" d="M5.33594 12.333C5.88822 12.333 6.33594 11.8853 6.33594 11.333C6.33594 10.7807 5.88822 10.333 5.33594 10.333C4.78365 10.333 4.33594 10.7807 4.33594 11.333C4.33594 11.8853 4.78365 12.333 5.33594 12.333Z" stroke="#236CFF" stroke-linecap="round" stroke-linejoin="round"/>
<path d="M5.33333 10.3333V6" stroke="#236CFF" stroke-linecap="round" stroke-linejoin="round"/>
</svg>
