<svg width="48" height="56" viewBox="0 0 48 56" fill="none" xmlns="http://www.w3.org/2000/svg">
<mask id="path-1-inside-1_8532_189860" fill="white">
<path d="M24 0C37.2548 0 48 10.7452 48 24C48 35.9532 39.2613 45.8638 27.8242 47.6953L23.3193 56L18.873 47.4492C8.0818 45.1007 0 35.4951 0 24C0 10.7452 10.7452 0 24 0Z"/>
</mask>
<path d="M24 0C37.2548 0 48 10.7452 48 24C48 35.9532 39.2613 45.8638 27.8242 47.6953L23.3193 56L18.873 47.4492C8.0818 45.1007 0 35.4951 0 24C0 10.7452 10.7452 0 24 0Z" fill="white"/>
<path d="M27.8242 47.6953L27.6661 46.7079L27.18 46.7857L26.9452 47.2185L27.8242 47.6953ZM23.3193 56L22.4321 56.4613L23.3007 58.1317L24.1983 56.4768L23.3193 56ZM18.873 47.4492L19.7603 46.9879L19.5439 46.5718L19.0857 46.4721L18.873 47.4492ZM24 0V1C36.7025 1 47 11.2975 47 24H48H49C49 10.1929 37.8071 -1 24 -1V0ZM48 24H47C47 35.4541 38.6259 44.9528 27.6661 46.7079L27.8242 47.6953L27.9823 48.6827C39.8967 46.7748 49 36.4523 49 24H48ZM27.8242 47.6953L26.9452 47.2185L22.4403 55.5232L23.3193 56L24.1983 56.4768L28.7032 48.1721L27.8242 47.6953ZM23.3193 56L24.2066 55.5387L19.7603 46.9879L18.873 47.4492L17.9858 47.9106L22.4321 56.4613L23.3193 56ZM18.873 47.4492L19.0857 46.4721C8.74423 44.2215 1 35.0148 1 24H0H-1C-1 35.9754 7.41938 45.98 18.6604 48.4263L18.873 47.4492ZM0 24H1C1 11.2975 11.2975 1 24 1V0V-1C10.1929 -1 -1 10.1929 -1 24H0Z" fill="#313131" mask="url(#path-1-inside-1_8532_189860)"/>
<rect x="4" y="4" width="40" height="40" rx="20" fill="#CFB7FF"/>
<path d="M16.0498 29.3212H7.4961V22.6108L10.0455 19.4393H16.0498V29.3212Z" fill="#FF54F4"/>
<path d="M10.0466 19.4393H11.5957L9.04629 22.6108V29.3212H7.49722V22.6108L10.0466 19.4393Z" fill="#C300EA"/>
<path d="M40.502 27.5243H16.0516V29.321H40.502V27.5243Z" fill="#EAEAEA"/>
<path d="M17.46 27.5243H16.0536V29.321H17.46V27.5243Z" fill="#DFDFDF"/>
<path d="M7.4961 22.6133V22.7849H12.1557C12.2711 22.7849 12.3818 22.739 12.4634 22.6574C12.545 22.5758 12.5908 22.4651 12.5908 22.3497V21.1321C12.5908 21.0167 12.545 20.906 12.4634 20.8244C12.3818 20.7427 12.2711 20.6969 12.1557 20.6969H9.03667L7.4961 22.6133Z" fill="#B1E4F9"/>
<path d="M9.03785 20.6969H10.5869L9.04635 22.6133V22.7849H7.49728V22.6133L9.03785 20.6969Z" fill="#90D8F9"/>
<path d="M11.7583 31.4002C10.689 31.4002 9.82216 30.5334 9.82216 29.4642C9.82216 28.3949 10.689 27.5281 11.7583 27.5281C12.8275 27.5281 13.6943 28.3949 13.6943 29.4642C13.6943 30.5334 12.8275 31.4002 11.7583 31.4002Z" fill="#595959"/>
<path d="M30.35 31.4002C29.2808 31.4002 28.414 30.5334 28.414 29.4642C28.414 28.3949 29.2808 27.5281 30.35 27.5281C31.4193 27.5281 32.2861 28.3949 32.2861 29.4642C32.2861 30.5334 31.4193 31.4002 30.35 31.4002Z" fill="#595959"/>
<path d="M19.9858 31.4002C18.9165 31.4002 18.0497 30.5334 18.0497 29.4642C18.0497 28.3949 18.9165 27.5281 19.9858 27.5281C21.0551 27.5281 21.9219 28.3949 21.9219 29.4642C21.9219 30.5334 21.0551 31.4002 19.9858 31.4002Z" fill="#595959"/>
<path d="M35.936 31.4002C34.8667 31.4002 33.9999 30.5334 33.9999 29.4642C33.9999 28.3949 34.8667 27.5281 35.936 27.5281C37.0053 27.5281 37.8721 28.3949 37.8721 29.4642C37.8721 30.5334 37.0053 31.4002 35.936 31.4002Z" fill="#595959"/>
<path d="M40.502 17.0466H19.0782V25.8417H40.502V17.0466Z" fill="#FF54F4"/>
<path d="M20.3086 17.0466H19.0778V25.8417H20.3086V17.0466Z" fill="#C300EA"/>
<path d="M36.876 25.844H22.6996V27.5273H36.876V25.844ZM17.4557 21.3942H16.0493V25.3064H17.4557V21.3942ZM27.0206 29.324H23.4775V30.6981H27.0206V29.324Z" fill="#AAAAAA"/>
<path d="M11.2534 29.4127C11.2534 29.1376 11.4763 28.9147 11.7515 28.9147C12.0266 28.9147 12.2495 29.1376 12.2495 29.4127V29.5135C12.2495 29.7887 12.0266 30.0116 11.7515 30.0116C11.4763 30.0116 11.2534 29.7887 11.2534 29.5135V29.4127ZM30.3496 28.9147C30.415 28.9147 30.4798 28.9275 30.5402 28.9526C30.6007 28.9776 30.6556 29.0143 30.7018 29.0605C30.7481 29.1068 30.7848 29.1617 30.8098 29.2221C30.8348 29.2825 30.8477 29.3473 30.8477 29.4127V29.5135C30.8477 29.7887 30.6248 30.0116 30.3496 30.0116C30.0745 30.0116 29.8516 29.7887 29.8516 29.5135V29.4127C29.8516 29.2806 29.9041 29.154 29.9975 29.0605C30.0909 28.9671 30.2175 28.9147 30.3496 28.9147ZM19.9826 28.9147C20.048 28.9147 20.1127 28.9275 20.1732 28.9526C20.2336 28.9776 20.2885 29.0143 20.3348 29.0605C20.381 29.1068 20.4177 29.1617 20.4427 29.2221C20.4677 29.2825 20.4806 29.3473 20.4806 29.4127V29.5135C20.4806 29.7887 20.2577 30.0116 19.9826 30.0116C19.7074 30.0116 19.4845 29.7887 19.4845 29.5135V29.4127C19.4845 29.2806 19.537 29.154 19.6304 29.0605C19.7238 28.9671 19.8505 28.9147 19.9826 28.9147ZM35.9316 28.9147C35.997 28.9147 36.0618 28.9275 36.1222 28.9526C36.1827 28.9776 36.2376 29.0143 36.2838 29.0605C36.3301 29.1068 36.3668 29.1617 36.3918 29.2221C36.4168 29.2825 36.4297 29.3473 36.4297 29.4127V29.5135C36.4297 29.7887 36.2068 30.0116 35.9316 30.0116C35.6565 30.0116 35.4336 29.7887 35.4336 29.5135V29.4127C35.4336 29.2806 35.4861 29.154 35.5795 29.0605C35.6729 28.9671 35.7995 28.9147 35.9316 28.9147Z" fill="black"/>
<path d="M7.10964 22.2992L7.34325 22.0085L8.6502 20.3827L8.65086 20.382L9.65912 19.1277C9.70579 19.0697 9.7649 19.0228 9.83209 18.9906C9.89927 18.9584 9.97283 18.9417 10.0473 18.9417H16.0517C16.1171 18.9417 16.1818 18.9546 16.2423 18.9796C16.3027 19.0047 16.3576 19.0413 16.4039 19.0876C16.4501 19.1338 16.4868 19.1888 16.5118 19.2492C16.5369 19.3096 16.5497 19.3744 16.5497 19.4398V20.8938H17.458C17.5234 20.8938 17.5882 20.9066 17.6486 20.9317C17.7091 20.9567 17.764 20.9934 17.8102 21.0396C17.8565 21.0859 17.8932 21.1408 17.9182 21.2012C17.9432 21.2616 17.9561 21.3264 17.9561 21.3918V25.304C17.9561 25.5791 17.7332 25.8021 17.458 25.8021H16.5497V27.0269H22.2039V26.3397H19.0783C18.8032 26.3397 18.5802 26.1168 18.5802 25.8416V17.0466C18.5802 16.7715 18.8032 16.5486 19.0783 16.5486H36.3843C36.6594 16.5486 36.8823 16.7715 36.8823 17.0466C36.8823 17.3218 36.6594 17.5447 36.3843 17.5447H19.5763V25.3437H40.0039V17.5447H38.0444C37.7693 17.5447 37.5464 17.3218 37.5464 17.0466C37.5464 16.7715 37.7693 16.5486 38.0444 16.5486H40.502C40.5674 16.5486 40.6321 16.5615 40.6926 16.5865C40.753 16.6115 40.8079 16.6482 40.8541 16.6944C40.9004 16.7407 40.9371 16.7956 40.9621 16.856C40.9871 16.9165 41 16.9812 41 17.0466V25.8417C41 26.1168 40.7771 26.3398 40.502 26.3398H37.3763V27.0269H40.502C40.5674 27.0269 40.6321 27.0398 40.6926 27.0648C40.753 27.0899 40.8079 27.1265 40.8541 27.1728C40.9004 27.219 40.9371 27.2739 40.9621 27.3344C40.9871 27.3948 41 27.4596 41 27.525V29.3217C41 29.5969 40.7771 29.8198 40.502 29.8198H38.3427C38.1688 30.9925 37.1556 31.8953 35.9352 31.8953C34.715 31.8953 33.7017 30.9925 33.5278 29.8198H32.7607C32.5867 30.9925 31.5735 31.8953 30.3532 31.8953C29.1329 31.8953 28.1197 30.9925 27.9457 29.8198H27.521V30.6958C27.521 30.9709 27.2981 31.1938 27.023 31.1938H23.4799C23.2048 31.1938 22.9819 30.9709 22.9819 30.6958V29.8198H22.3936C22.2196 30.9925 21.2065 31.8953 19.9862 31.8953C18.7658 31.8953 17.7526 30.9925 17.5787 29.8198H14.1626C14.0488 30.5936 13.5707 31.2683 12.8577 31.6311C12.7994 31.6608 12.7358 31.6786 12.6706 31.6837C12.6054 31.6888 12.5398 31.681 12.4776 31.6608C12.4154 31.6405 12.3578 31.6082 12.3081 31.5657C12.2584 31.5232 12.2175 31.4713 12.1879 31.413C12.128 31.2953 12.1173 31.1586 12.1582 31.033C12.1991 30.9074 12.2882 30.8032 12.4059 30.7432C12.8915 30.4961 13.1932 30.0048 13.1932 29.461C13.1932 28.6739 12.553 28.023 11.7552 28.023C10.9623 28.023 10.3172 28.6681 10.3172 29.461C10.3172 30.0011 10.616 30.491 11.0968 30.7393C11.2137 30.8001 11.3017 30.9048 11.3416 31.0305C11.3814 31.1561 11.3698 31.2924 11.3094 31.4095C11.2489 31.5266 11.1445 31.615 11.019 31.6553C10.8935 31.6955 10.7571 31.6844 10.6398 31.6243C9.93437 31.26 9.46129 30.588 9.348 29.8197H7.49805C7.22293 29.8197 7 29.5967 7 29.3216V22.6113C6.99985 22.4978 7.03854 22.3877 7.10964 22.2992ZM8.39938 22.2847H12.0946V21.1929H9.27715L8.39938 22.2847ZM16.9599 24.806V21.8899H16.5497V24.806H16.9599ZM16.5497 28.8236H17.6372C17.7156 28.5352 17.8467 28.2638 18.0237 28.023H16.5497L16.5497 28.8236ZM22.3349 28.8236H28.0042C28.0827 28.5352 28.2137 28.2638 28.3908 28.023H21.9484C22.1255 28.2637 22.2565 28.5352 22.3349 28.8236ZM33.9729 28.023H32.3154C32.4925 28.2638 32.6235 28.5353 32.702 28.8237H33.5864C33.6648 28.5353 33.7959 28.2638 33.9729 28.023ZM36.3802 26.3398H23.1999V27.0269H36.3802V26.3398ZM40.0039 28.023H37.8976C38.0746 28.2638 38.2057 28.5353 38.2841 28.8237H40.0039V28.023ZM35.9352 30.8991C36.7281 30.8991 37.3732 30.254 37.3732 29.4611C37.3732 28.668 36.7238 28.023 35.9352 28.023C35.1473 28.023 34.4972 28.6672 34.4972 29.4611C34.4972 30.254 35.1423 30.8991 35.9352 30.8991ZM30.3532 30.8991C31.1461 30.8991 31.7911 30.254 31.7911 29.4611C31.7911 28.6755 31.1489 28.023 30.3533 28.023H30.3529C29.5673 28.023 28.9151 28.6653 28.9151 29.4611C28.9151 30.254 29.5602 30.8991 30.3532 30.8991ZM23.9779 30.1977H26.5248V29.8198H23.9779V30.1977ZM19.9861 30.8991C20.779 30.8991 21.4241 30.254 21.4241 29.4611C21.4241 28.6755 20.7818 28.023 19.9863 28.023H19.9859C19.1703 28.023 18.5481 28.6949 18.5481 29.4611C18.548 30.254 19.1932 30.8991 19.9861 30.8991ZM9.40624 28.8236C9.68714 27.7897 10.6335 27.0269 11.7551 27.0269C12.8768 27.0269 13.8231 27.7897 14.104 28.8236H15.5537V19.9378H10.2861L10.078 20.1966H12.1576C12.6722 20.1966 13.0908 20.6153 13.0908 21.1299V22.3475C13.0908 22.8621 12.6722 23.2807 12.1576 23.2807H7.99603V26.5475H8.33224C8.60737 26.5475 8.8303 26.7705 8.8303 27.0456C8.8303 27.3207 8.60737 27.5436 8.33224 27.5436H7.99603V28.8236H9.40624V28.8236Z" fill="black"/>
<path d="M21.4142 24.0378V18.85C21.4142 18.5749 21.6371 18.3519 21.9123 18.3519C22.1874 18.3519 22.4103 18.5749 22.4103 18.85V24.0378C22.4103 24.3129 22.1874 24.5358 21.9123 24.5358C21.6371 24.5358 21.4142 24.3129 21.4142 24.0378ZM24.5647 24.0378V18.85C24.5647 18.5749 24.7877 18.3519 25.0628 18.3519C25.3379 18.3519 25.5608 18.5749 25.5608 18.85V24.0378C25.5608 24.3129 25.3379 24.5358 25.0628 24.5358C24.7877 24.5358 24.5647 24.3129 24.5647 24.0378ZM27.7153 24.0378V18.85C27.7153 18.5749 27.9383 18.3519 28.2134 18.3519C28.4885 18.3519 28.7114 18.5749 28.7114 18.85V24.0378C28.7114 24.3129 28.4885 24.5358 28.2134 24.5358C27.9383 24.5358 27.7153 24.3129 27.7153 24.0378ZM30.8659 24.0378V18.85C30.8659 18.5749 31.0888 18.3519 31.3639 18.3519C31.639 18.3519 31.862 18.5749 31.862 18.85V24.0378C31.862 24.3129 31.639 24.5358 31.3639 24.5358C31.0888 24.5358 30.8659 24.3129 30.8659 24.0378ZM34.0164 24.0378V18.85C34.0164 18.5749 34.2393 18.3519 34.5144 18.3519C34.7896 18.3519 35.0125 18.5749 35.0125 18.85V24.0378C35.0125 24.3129 34.7896 24.5358 34.5144 24.5358C34.2393 24.5358 34.0164 24.3129 34.0164 24.0378ZM38.1631 18.85V24.0378C38.1631 24.3129 37.9402 24.5358 37.665 24.5358C37.3899 24.5358 37.167 24.3129 37.167 24.0378V18.85C37.167 18.5749 37.3899 18.3519 37.665 18.3519C37.9402 18.3519 38.1631 18.5749 38.1631 18.85Z" fill="black"/>
</svg>
