<svg width="24" height="24" viewBox="0 0 24 24" fill="none" xmlns="http://www.w3.org/2000/svg">
<g clip-path="url(#clip0_8785_75623)">
<path d="M17.6133 15.6185H23.6512V10.8817L21.8516 8.64307H17.6133V15.6185Z" fill="#FF54F4"/>
<path d="M21.8513 8.64307H20.7578L22.5574 10.8817V15.6185H23.6509V10.8817L21.8513 8.64307Z" fill="#C300EA"/>
<path d="M0.351562 14.3501H17.6106V15.6184H0.351562V14.3501Z" fill="#EAEAEA"/>
<path d="M16.6172 14.3501H17.6099V15.6184H16.6172V14.3501Z" fill="#DFDFDF"/>
<path d="M23.651 10.8835V11.0046H20.3619C20.2804 11.0046 20.2023 10.9723 20.1447 10.9146C20.0871 10.857 20.0547 10.7789 20.0547 10.6974V9.83794C20.0547 9.75647 20.0871 9.67834 20.1447 9.62073C20.2023 9.56313 20.2804 9.53076 20.3619 9.53076H22.5635L23.651 10.8835Z" fill="#B1E4F9"/>
<path d="M22.5622 9.53076H21.4688L22.5562 10.8835V11.0046H23.6497V10.8835L22.5622 9.53076Z" fill="#90D8F9"/>
<path d="M20.6401 17.0858C21.3949 17.0858 22.0067 16.474 22.0067 15.7192C22.0067 14.9644 21.3949 14.3525 20.6401 14.3525C19.8853 14.3525 19.2734 14.9644 19.2734 15.7192C19.2734 16.474 19.8853 17.0858 20.6401 17.0858Z" fill="#595959"/>
<path d="M7.51509 17.0858C8.26987 17.0858 8.88174 16.474 8.88174 15.7192C8.88174 14.9644 8.26987 14.3525 7.51509 14.3525C6.76031 14.3525 6.14844 14.9644 6.14844 15.7192C6.14844 16.474 6.76031 17.0858 7.51509 17.0858Z" fill="#595959"/>
<path d="M14.8315 17.0858C15.5863 17.0858 16.1981 16.474 16.1981 15.7192C16.1981 14.9644 15.5863 14.3525 14.8315 14.3525C14.0767 14.3525 13.4648 14.9644 13.4648 15.7192C13.4648 16.474 14.0767 17.0858 14.8315 17.0858Z" fill="#595959"/>
<path d="M3.57368 17.0858C4.32846 17.0858 4.94033 16.474 4.94033 15.7192C4.94033 14.9644 4.32846 14.3525 3.57368 14.3525C2.8189 14.3525 2.20703 14.9644 2.20703 15.7192C2.20703 16.474 2.8189 17.0858 3.57368 17.0858Z" fill="#595959"/>
<path d="M0.148438 6.56445H15.2711V12.7728H0.148438V6.56445Z" fill="#FF54F4"/>
<path d="M14.6055 6.9541H15.4743V13.1624H14.6055V6.9541Z" fill="#C300EA"/>
<path d="M2.91016 13.164H12.917V14.3523H2.91016V13.164ZM16.6186 10.0229H17.6113V12.7845H16.6186V10.0229ZM9.86692 15.6205H12.3679V16.5904H9.86692V15.6205Z" fill="#AAAAAA"/>
<path d="M20.9981 15.6831C20.9981 15.4889 20.8407 15.3315 20.6465 15.3315C20.4523 15.3315 20.2949 15.4889 20.2949 15.6831V15.7543C20.2949 15.9485 20.4523 16.1058 20.6465 16.1058C20.8407 16.1058 20.9981 15.9485 20.9981 15.7543V15.6831ZM7.51837 15.3315C7.4722 15.3315 7.42648 15.3406 7.38382 15.3583C7.34117 15.376 7.30241 15.4019 7.26976 15.4345C7.23711 15.4671 7.21122 15.5059 7.19355 15.5486C7.17589 15.5912 7.1668 15.6369 7.1668 15.6831V15.7543C7.1668 15.9485 7.32416 16.1058 7.51837 16.1058C7.71257 16.1058 7.86993 15.9485 7.86993 15.7543V15.6831C7.86993 15.5899 7.83289 15.5004 7.76696 15.4345C7.70103 15.3686 7.61161 15.3315 7.51837 15.3315ZM14.8363 15.3315C14.7901 15.3315 14.7444 15.3406 14.7018 15.3583C14.6591 15.376 14.6203 15.4019 14.5877 15.4345C14.555 15.4671 14.5292 15.5059 14.5115 15.5486C14.4938 15.5912 14.4847 15.6369 14.4847 15.6831V15.7543C14.4847 15.9485 14.6421 16.1058 14.8363 16.1058C15.0305 16.1058 15.1879 15.9485 15.1879 15.7543V15.6831C15.1879 15.5899 15.1508 15.5004 15.0849 15.4345C15.019 15.3686 14.9295 15.3315 14.8363 15.3315ZM3.57813 15.3315C3.53196 15.3315 3.48624 15.3406 3.44358 15.3583C3.40093 15.376 3.36217 15.4019 3.32952 15.4345C3.29687 15.4671 3.27098 15.5059 3.25331 15.5486C3.23565 15.5912 3.22656 15.6369 3.22656 15.6831V15.7543C3.22656 15.9485 3.38392 16.1058 3.57813 16.1058C3.77233 16.1058 3.92969 15.9485 3.92969 15.7543V15.6831C3.92969 15.5899 3.89265 15.5004 3.82672 15.4345C3.76079 15.3686 3.67137 15.3315 3.57813 15.3315Z" fill="black"/>
<path d="M23.9226 10.6618L23.7577 10.4566L22.8352 9.30897L22.8347 9.30846L22.123 8.42312C22.09 8.38214 22.0483 8.34906 22.0009 8.32634C21.9535 8.30362 21.9015 8.29182 21.8489 8.29183H17.6106C17.5644 8.29182 17.5187 8.30091 17.476 8.31858C17.4334 8.33624 17.3946 8.36214 17.362 8.39478C17.3293 8.42743 17.3034 8.46619 17.2858 8.50885C17.2681 8.5515 17.259 8.59722 17.259 8.64339V9.66972H16.6179C16.5717 9.66972 16.526 9.67881 16.4833 9.69647C16.4407 9.71414 16.4019 9.74003 16.3693 9.77268C16.3366 9.80533 16.3107 9.84409 16.2931 9.88674C16.2754 9.9294 16.2663 9.97512 16.2663 10.0213V12.7828C16.2663 12.977 16.4237 13.1344 16.6179 13.1344H17.259V13.999H13.2678V13.5139H15.4742C15.6684 13.5139 15.8257 13.3566 15.8257 13.1623V6.9541C15.8257 6.7599 15.6684 6.60254 15.4742 6.60254H3.25815C3.06395 6.60254 2.90659 6.7599 2.90659 6.9541C2.90659 7.14831 3.06395 7.30567 3.25815 7.30567H15.1226V12.8108H0.703128V7.30567H2.08627C2.28048 7.30567 2.43784 7.14831 2.43784 6.9541C2.43784 6.7599 2.28048 6.60254 2.08627 6.60254H0.351564C0.305394 6.60253 0.259675 6.61162 0.217019 6.62929C0.174362 6.64695 0.135604 6.67285 0.102957 6.7055C0.07031 6.73814 0.0444142 6.7769 0.0267487 6.81956C0.00908311 6.86221 -6.15407e-06 6.90793 3.12613e-09 6.9541V13.1624C3.12613e-09 13.3566 0.15736 13.514 0.351564 13.514H2.55789V13.999H0.351564C0.305394 13.999 0.259675 14.0081 0.217019 14.0258C0.174362 14.0434 0.135604 14.0693 0.102957 14.102C0.07031 14.1346 0.0444142 14.1734 0.0267487 14.216C0.00908311 14.2587 -6.15407e-06 14.3044 3.12613e-09 14.3506V15.6189C3.12613e-09 15.8131 0.15736 15.9705 0.351564 15.9705H1.87571C1.99852 16.7983 2.7137 17.4355 3.57512 17.4355C4.4365 17.4355 5.15172 16.7983 5.27449 15.9705H5.81599C5.93881 16.7983 6.65398 17.4355 7.51536 17.4355C8.37678 17.4355 9.09201 16.7983 9.21477 15.9705H9.51459V16.5888C9.51459 16.783 9.67195 16.9403 9.86615 16.9403H12.3671C12.5613 16.9403 12.7187 16.783 12.7187 16.5888V15.9705H13.1339C13.2567 16.7983 13.9719 17.4355 14.8333 17.4355C15.6947 17.4355 16.4099 16.7983 16.5327 15.9705H18.944C19.0244 16.5167 19.3618 16.9929 19.8652 17.249C19.9063 17.27 19.9512 17.2826 19.9972 17.2862C20.0433 17.2898 20.0896 17.2843 20.1335 17.27C20.1774 17.2557 20.218 17.2329 20.2531 17.2029C20.2882 17.1729 20.317 17.1362 20.338 17.0951C20.3803 17.012 20.3878 16.9155 20.3589 16.8268C20.3301 16.7382 20.2672 16.6646 20.1841 16.6223C19.8413 16.4479 19.6283 16.101 19.6283 15.7172C19.6283 15.1616 20.0802 14.7021 20.6434 14.7021C21.2031 14.7021 21.6584 15.1575 21.6584 15.7172C21.6584 16.0985 21.4476 16.4442 21.1081 16.6195C21.0256 16.6624 20.9635 16.7364 20.9354 16.8251C20.9072 16.9137 20.9154 17.01 20.9581 17.0926C21.0008 17.1753 21.0745 17.2377 21.1631 17.2661C21.2517 17.2945 21.3479 17.2866 21.4307 17.2442C21.9287 16.9871 22.2626 16.5128 22.3426 15.9704H23.6484C23.8426 15.9704 24 15.813 24 15.6188V10.8821C24.0001 10.802 23.9728 10.7242 23.9226 10.6618ZM23.0122 10.6516H20.4038V9.88085H22.3926L23.0122 10.6516ZM16.9695 12.4313V10.3729H17.2591V12.4313H16.9695ZM17.259 15.2673H16.4914C16.436 15.0637 16.3435 14.8721 16.2185 14.7021H17.2591L17.259 15.2673ZM13.1754 15.2673H9.17348C9.1181 15.0637 9.02559 14.8721 8.90061 14.7021H13.4482C13.3232 14.8721 13.2307 15.0637 13.1754 15.2673ZM4.96029 14.7022H6.13029C6.0053 14.8721 5.9128 15.0637 5.85743 15.2673H5.23315C5.17778 15.0637 5.08527 14.8721 4.96029 14.7022ZM3.26101 13.514H12.5648V13.999H3.26101V13.514ZM0.703128 14.7022H2.18996C2.06497 14.8721 1.97247 15.0637 1.9171 15.2673H0.703128V14.7022ZM3.57517 16.7323C3.01548 16.7323 2.56009 16.2769 2.56009 15.7172C2.56009 15.1574 3.01853 14.7022 3.57517 14.7022C4.13134 14.7022 4.59021 15.1568 4.59021 15.7172C4.59021 16.2769 4.13486 16.7323 3.57517 16.7323ZM7.51541 16.7323C6.95572 16.7323 6.50037 16.2769 6.50037 15.7172C6.50037 15.1627 6.95375 14.7022 7.51531 14.7022H7.51559C8.07013 14.7022 8.53049 15.1555 8.53049 15.7172C8.53049 16.2769 8.07514 16.7323 7.51541 16.7323ZM12.0156 16.2372H10.2178V15.9705H12.0156V16.2372ZM14.8333 16.7323C14.2736 16.7323 13.8183 16.2769 13.8183 15.7172C13.8183 15.1627 14.2717 14.7022 14.8332 14.7022H14.8335C15.4092 14.7022 15.8484 15.1764 15.8484 15.7172C15.8485 16.2769 15.3931 16.7323 14.8333 16.7323ZM22.3015 15.2673C22.1032 14.5374 21.4352 13.999 20.6435 13.999C19.8517 13.999 19.1837 14.5374 18.9854 15.2673H17.9621V8.99496H21.6804L21.8273 9.17763H20.3594C19.9961 9.17763 19.7006 9.47318 19.7006 9.83641V10.6959C19.7006 11.0592 19.9961 11.3547 20.3594 11.3547H23.2969V13.6606H23.0596C22.8654 13.6606 22.708 13.818 22.708 14.0122C22.708 14.2064 22.8654 14.3638 23.0596 14.3638H23.2969V15.2672H22.3015V15.2673Z" fill="black"/>
<path d="M13.8266 11.889V8.22705C13.8266 8.03285 13.6693 7.87549 13.4751 7.87549C13.2809 7.87549 13.1235 8.03285 13.1235 8.22705V11.889C13.1235 12.0832 13.2809 12.2406 13.4751 12.2406C13.6693 12.2406 13.8266 12.0832 13.8266 11.889ZM11.6027 11.889V8.22705C11.6027 8.03285 11.4454 7.87549 11.2512 7.87549C11.057 7.87549 10.8996 8.03285 10.8996 8.22705V11.889C10.8996 12.0832 11.057 12.2406 11.2512 12.2406C11.4454 12.2406 11.6027 12.0832 11.6027 11.889ZM9.37879 11.889V8.22705C9.37879 8.03285 9.22143 7.87549 9.02723 7.87549C8.83303 7.87549 8.67567 8.03285 8.67567 8.22705V11.889C8.67567 12.0832 8.83303 12.2406 9.02723 12.2406C9.22143 12.2406 9.37879 12.0832 9.37879 11.889ZM7.15489 11.889V8.22705C7.15489 8.03285 6.99753 7.87549 6.80333 7.87549C6.60912 7.87549 6.45176 8.03285 6.45176 8.22705V11.889C6.45176 12.0832 6.60912 12.2406 6.80333 12.2406C6.99753 12.2406 7.15489 12.0832 7.15489 11.889ZM4.93099 11.889V8.22705C4.93099 8.03285 4.77363 7.87549 4.57942 7.87549C4.38522 7.87549 4.22786 8.03285 4.22786 8.22705V11.889C4.22786 12.0832 4.38522 12.2406 4.57942 12.2406C4.77363 12.2406 4.93099 12.0832 4.93099 11.889ZM2.00391 8.22705V11.889C2.00391 12.0832 2.16127 12.2406 2.35547 12.2406C2.54968 12.2406 2.70704 12.0832 2.70704 11.889V8.22705C2.70704 8.03285 2.54968 7.87549 2.35547 7.87549C2.16127 7.87549 2.00391 8.03285 2.00391 8.22705Z" fill="black"/>
</g>
<defs>
<clipPath id="clip0_8785_75623">
<rect width="24" height="24" fill="white" transform="matrix(-1 0 0 1 24 0)"/>
</clipPath>
</defs>
</svg>
