<svg width="24" height="24" viewBox="0 0 24 24" fill="none" xmlns="http://www.w3.org/2000/svg">
<g clip-path="url(#clip0_8785_75734)">
<path d="M0.755701 15.4492C0.651106 15.4492 0.550794 15.4077 0.476834 15.3337C0.402874 15.2598 0.361324 15.1594 0.361324 15.0548V14.1857L0.923582 13.0177L0.361324 11.8497V10.535C0.361324 10.4497 0.395213 10.3679 0.455536 10.3076C0.515859 10.2473 0.597673 10.2134 0.682982 10.2134H11.7734V15.4492H0.755701Z" fill="#FFC400"/>
<path d="M11.7734 10.2134H9.75849V15.4492H11.7734V10.2134Z" fill="#C8B700"/>
<path d="M11.5391 14.1875V15.4508H0.714976C0.518186 15.4508 0.358691 15.2913 0.358691 15.0945V14.1875H11.5391Z" fill="#F1F1F1"/>
<path d="M11.5391 14.1875H9.75581V15.4508H11.5391V14.1875Z" fill="#9E959E"/>
<path d="M4.45543 16.9319C3.63691 16.9319 2.97337 16.2684 2.97337 15.4498C2.97337 14.6313 3.63691 13.9678 4.45543 13.9678C5.27396 13.9678 5.9375 14.6313 5.9375 15.4498C5.9375 16.2684 5.27396 16.9319 4.45543 16.9319Z" fill="#4B3F4E"/>
<path d="M0.361083 11.8506H1.66974C1.75008 11.8506 1.82713 11.8825 1.88393 11.9393C1.94074 11.9961 1.97266 12.0732 1.97266 12.1535V14.1866H0.36113L0.361083 11.8506Z" fill="#FFC300"/>
<path d="M4.43126 15.4499C4.43126 14.9064 4.13851 14.4315 3.70229 14.1735C3.93029 14.0385 4.19046 13.9674 4.45543 13.9678C5.27394 13.9678 5.9375 14.6313 5.9375 15.4498C5.9375 16.2684 5.27394 16.9319 4.45543 16.9319C4.18039 16.9319 3.92302 16.8567 3.70229 16.7262C4.13851 16.4683 4.43126 15.9934 4.43126 15.4499Z" fill="#4B3F4E"/>
<path d="M10.9296 10.2137V15.4493H19.0781V10.8322L15.8311 7.30822C15.6896 7.15453 15.49 7.06738 15.281 7.06738H11.6779C11.2646 7.06738 10.9296 7.40193 10.9296 7.81519V10.2137Z" fill="#FFC300"/>
<path d="M16.7421 12.2379C16.3962 12.1766 16.0799 12.0035 15.8419 11.7451L12.9618 8.61945C12.8203 8.46577 12.6207 8.37862 12.4117 8.37862H10.9296V7.81519C10.9296 7.40221 11.2644 7.06738 11.6774 7.06738H15.281C15.49 7.06738 15.6896 7.15453 15.8311 7.30822L19.0781 10.8322V12.6516L16.7421 12.2379ZM19.0781 14.186H10.9296V15.4493H19.0781V14.186Z" fill="#FFC300"/>
<path d="M12.3326 10.8334V8.47412H14.9901L17.0083 10.6644C17.0678 10.7289 17.022 10.8334 16.9342 10.8334H12.3326Z" fill="white"/>
<path d="M14.9901 8.47412L17.0083 10.6644C17.0678 10.7289 17.022 10.8334 16.9342 10.8334H14.9978L12.959 8.62078C12.9049 8.56221 12.8418 8.51269 12.7721 8.47412H14.9901Z" fill="white"/>
<path d="M19.0768 10.834L22.9442 11.519C23.1416 11.5541 23.3203 11.6576 23.4491 11.8113C23.5779 11.965 23.6484 12.1591 23.6484 12.3596L23.2877 12.6149L23.2614 13.4963L23.6484 13.6798V15.3485C23.6484 15.4051 23.6025 15.4511 23.5458 15.4511H19.0768L16.4733 14.677V11.4077L19.0768 10.834Z" fill="#FFC300"/>
<path d="M23.6484 13.6788H22.9991C22.6345 13.6788 22.3389 13.3832 22.3389 13.0186C22.3389 12.654 22.6345 12.3584 22.9991 12.3584H23.6484V13.6788Z" fill="#FEDF30"/>
<path d="M20.4164 16.9319C19.5978 16.9319 18.9343 16.2684 18.9343 15.4498C18.9343 14.6313 19.5978 13.9678 20.4164 13.9678C21.2349 13.9678 21.8984 14.6313 21.8984 15.4498C21.8984 16.2684 21.2349 16.9319 20.4164 16.9319Z" fill="#4B3F4E"/>
<path d="M20.3922 15.4499C20.3922 14.9064 20.0994 14.4315 19.6632 14.1735C19.8912 14.0385 20.1514 13.9674 20.4164 13.9678C21.2349 13.9678 21.8984 14.6313 21.8984 15.4498C21.8984 16.2684 21.2349 16.9319 20.4164 16.9319C20.1413 16.9319 19.884 16.8567 19.6632 16.7262C20.0995 16.4683 20.3922 15.9934 20.3922 15.4499Z" fill="#4B3F4E"/>
<path d="M0.670584 9.86627L1.7303 9.86238C1.94143 9.86055 2.10579 10.0434 2.0804 10.2576C2.05931 10.4354 1.89954 10.5646 1.72046 10.5652L0.702866 10.569L0.706285 11.4991H1.6684C2.02979 11.4991 2.32273 11.792 2.32273 12.1534V13.8351H3.58706C3.85352 13.6913 4.15161 13.6161 4.4544 13.6164C4.75723 13.6161 5.05538 13.6913 5.32187 13.8351L5.3229 13.8351H10.5771V10.5655H3.2521C3.07246 10.5655 2.9117 10.4365 2.89005 10.2581C2.88382 10.2086 2.88819 10.1584 2.90287 10.1107C2.91755 10.0631 2.9422 10.0191 2.97518 9.98171C3.00817 9.94431 3.04873 9.91435 3.09418 9.89384C3.13963 9.87332 3.18892 9.86271 3.23879 9.86271H10.5771V7.81566C10.5771 7.20852 11.0693 6.71631 11.6764 6.71631H15.2799C15.4318 6.71649 15.582 6.74806 15.7212 6.80905C15.8603 6.87004 15.9853 6.95913 16.0884 7.07072L16.962 8.01883C17.0747 8.14112 17.0962 8.32807 17.0004 8.464C16.9704 8.50743 16.931 8.54356 16.8852 8.56971C16.8394 8.59587 16.7882 8.61138 16.7356 8.6151C16.683 8.61881 16.6301 8.61064 16.5811 8.59118C16.532 8.57173 16.488 8.54149 16.4522 8.5027L15.5715 7.54695C15.5344 7.50665 15.4893 7.47449 15.4391 7.45249C15.3889 7.43049 15.3347 7.41913 15.2799 7.41913H11.6765C11.5713 7.41913 11.4704 7.46091 11.396 7.53529C11.3217 7.60966 11.2799 7.71053 11.2799 7.81571V13.8351H16.1213C16.3009 13.8351 16.4617 13.9641 16.4833 14.1425C16.4895 14.192 16.4852 14.2422 16.4705 14.2898C16.4558 14.3375 16.4312 14.3815 16.3982 14.4189C16.3652 14.4563 16.3246 14.4862 16.2792 14.5068C16.2337 14.5273 16.1844 14.5379 16.1346 14.5379H11.2799V15.0986H18.5706C18.5966 15.0986 18.6189 15.0804 18.6238 15.0549C18.6489 14.9265 18.6987 14.6735 18.7178 14.5768C18.7187 14.572 18.7186 14.5672 18.7174 14.5625C18.7162 14.5578 18.714 14.5535 18.7109 14.5497C18.7078 14.546 18.704 14.543 18.6996 14.541C18.6953 14.5389 18.6905 14.5379 18.6857 14.5379H17.6455C17.4659 14.5379 17.3051 14.4088 17.2834 14.2305C17.2772 14.181 17.2816 14.1308 17.2963 14.0831C17.3109 14.0354 17.3356 13.9915 17.3686 13.9541C17.4016 13.9167 17.4421 13.8867 17.4876 13.8662C17.533 13.8457 17.5823 13.8351 17.6322 13.8351H18.7255V10.9698L17.476 9.61381C17.3543 9.48168 17.3403 9.27609 17.4567 9.13927C17.4889 9.10117 17.5288 9.07035 17.5738 9.04885C17.6188 9.02736 17.6678 9.01567 17.7177 9.01458C17.7675 9.01349 17.817 9.02302 17.8629 9.04253C17.9088 9.06204 17.95 9.09109 17.9838 9.12774L19.2549 10.5072L23.0054 11.1719C23.2843 11.221 23.5369 11.3668 23.7188 11.5838C23.9007 11.8008 24.0003 12.075 24 12.3582V15.3474C24 15.5981 23.7967 15.8013 23.5461 15.8013H22.214C22.0496 16.6447 21.3055 17.2833 20.4147 17.2833C19.5239 17.2833 18.7798 16.6447 18.6153 15.8013H6.25372C6.08925 16.6447 5.34515 17.2833 4.45435 17.2833C3.56214 17.2833 2.81714 16.6426 2.65432 15.7972L0.764948 15.8046H0.760122C0.638908 15.8046 0.517977 15.778 0.411991 15.7191C0.16127 15.5798 0.0174255 15.3319 0.0164413 15.0615L-9.72748e-05 10.5417C-0.00136185 10.1706 0.299492 9.86763 0.670584 9.86627ZM1.61991 12.2018H0.708862L0.714813 13.835H1.61986V12.2018H1.61991ZM10.5771 14.5378H6.04395C6.14434 14.7119 6.21524 14.9013 6.25376 15.0985H10.5771V14.5378ZM23.2972 12.7096H23.0088C22.8629 12.7096 22.7292 12.8066 22.698 12.9491C22.6878 12.9944 22.6878 13.0414 22.6981 13.0866C22.7085 13.1319 22.7288 13.1742 22.7578 13.2105C22.7867 13.2468 22.8234 13.2762 22.8652 13.2964C22.907 13.3165 22.9529 13.327 22.9993 13.3271H23.2972V12.7096ZM23.2972 14.03H23.0227C22.4962 14.03 22.0398 13.6371 21.992 13.1128C21.9373 12.5127 22.4103 12.0067 22.9993 12.0067H23.1537C23.0806 11.932 22.9858 11.8821 22.8828 11.8639L19.4283 11.2518V13.9056C19.7225 13.7165 20.0649 13.6162 20.4147 13.6164C21.3055 13.6164 22.0496 14.2551 22.214 15.0985H23.2972V14.03ZM20.3225 16.5769C21.0183 16.6323 21.597 16.0536 21.5417 15.3578C21.4981 14.8102 21.0545 14.3666 20.507 14.3229C19.8111 14.2674 19.2322 14.8462 19.2877 15.5422C19.3313 16.0898 19.775 16.5333 20.3225 16.5769ZM4.36228 16.5769C5.05807 16.6323 5.63678 16.0536 5.5814 15.3578C5.53782 14.8102 5.09424 14.3666 4.5467 14.3229C3.85081 14.2674 3.27192 14.8462 3.32744 15.5422C3.37111 16.0898 3.81473 16.5333 4.36228 16.5769ZM0.762323 15.1018L2.65582 15.0944C2.69454 14.8987 2.76517 14.7107 2.86489 14.5378H0.71739L0.719311 15.0591C0.719358 15.0709 0.750891 15.1028 0.762323 15.1018Z" fill="black"/>
<path d="M11.9814 8.47202C11.9814 8.37882 12.0184 8.28943 12.0843 8.22353C12.1502 8.15763 12.2396 8.12061 12.3328 8.12061H14.9903C15.0388 8.1206 15.0869 8.13066 15.1314 8.15016C15.1759 8.16966 15.2158 8.19817 15.2487 8.2339L17.4227 10.5932C17.4689 10.6434 17.4996 10.706 17.5108 10.7733C17.5221 10.8407 17.5135 10.9098 17.4861 10.9724C17.4587 11.0349 17.4136 11.0881 17.3565 11.1255C17.2993 11.1628 17.2325 11.1827 17.1642 11.1827H12.3329C12.2397 11.1827 12.1503 11.1457 12.0844 11.0798C12.0185 11.0139 11.9814 10.9245 11.9814 10.8313V8.47202H11.9814ZM12.6842 10.4799H16.3626L14.8362 8.82343H12.6842V10.4799ZM12.3328 11.9255H13.0107C13.2048 11.9255 13.3621 12.0829 13.3621 12.277C13.3621 12.471 13.2048 12.6284 13.0107 12.6284H12.3328C12.1387 12.6284 11.9814 12.471 11.9814 12.277C11.9814 12.0829 12.1387 11.9255 12.3328 11.9255Z" fill="black"/>
</g>
<defs>
<clipPath id="clip0_8785_75734">
<rect width="24" height="24" fill="white" transform="matrix(-1 0 0 1 24 0)"/>
</clipPath>
</defs>
</svg>
