<svg width="48" height="56" viewBox="0 0 48 56" fill="none" xmlns="http://www.w3.org/2000/svg">
<mask id="path-1-inside-1_8532_189832" fill="white">
<path d="M24 0C37.2548 0 48 10.7452 48 24C48 35.9532 39.2613 45.8638 27.8242 47.6953L23.3193 56L18.873 47.4492C8.0818 45.1007 0 35.4951 0 24C0 10.7452 10.7452 0 24 0Z"/>
</mask>
<path d="M24 0C37.2548 0 48 10.7452 48 24C48 35.9532 39.2613 45.8638 27.8242 47.6953L23.3193 56L18.873 47.4492C8.0818 45.1007 0 35.4951 0 24C0 10.7452 10.7452 0 24 0Z" fill="white"/>
<path d="M27.8242 47.6953L27.6661 46.7079L27.18 46.7857L26.9452 47.2185L27.8242 47.6953ZM23.3193 56L22.4321 56.4613L23.3007 58.1317L24.1983 56.4768L23.3193 56ZM18.873 47.4492L19.7603 46.9879L19.5439 46.5718L19.0857 46.4721L18.873 47.4492ZM24 0V1C36.7025 1 47 11.2975 47 24H48H49C49 10.1929 37.8071 -1 24 -1V0ZM48 24H47C47 35.4541 38.6259 44.9528 27.6661 46.7079L27.8242 47.6953L27.9823 48.6827C39.8967 46.7748 49 36.4523 49 24H48ZM27.8242 47.6953L26.9452 47.2185L22.4403 55.5232L23.3193 56L24.1983 56.4768L28.7032 48.1721L27.8242 47.6953ZM23.3193 56L24.2066 55.5387L19.7603 46.9879L18.873 47.4492L17.9858 47.9106L22.4321 56.4613L23.3193 56ZM18.873 47.4492L19.0857 46.4721C8.74423 44.2215 1 35.0148 1 24H0H-1C-1 35.9754 7.41938 45.98 18.6604 48.4263L18.873 47.4492ZM0 24H1C1 11.2975 11.2975 1 24 1V0V-1C10.1929 -1 -1 10.1929 -1 24H0Z" fill="#313131" mask="url(#path-1-inside-1_8532_189832)"/>
<rect x="4" y="4" width="40" height="40" rx="20" fill="#FFDC6B"/>
<path d="M38.994 28.6438C39.1334 28.6438 39.2672 28.5884 39.3658 28.4898C39.4644 28.3912 39.5198 28.2574 39.5198 28.118V26.9592L38.7701 25.4018L39.5198 23.8445V22.0916C39.5198 21.9779 39.4746 21.8688 39.3942 21.7883C39.3138 21.7079 39.2047 21.6627 39.0909 21.6627H24.3037V28.6438H38.994Z" fill="#FFC400"/>
<path d="M24.3037 21.6627H26.9903V28.6438H24.3037V21.6627Z" fill="#C8B700"/>
<path d="M24.6133 26.9615V28.6459H39.0453C39.3077 28.6459 39.5204 28.4332 39.5204 28.1709V26.9615H24.6133Z" fill="#B8B2B8"/>
<path d="M24.6133 26.9615H26.9909V28.6459H24.6133V26.9615Z" fill="#9E959E"/>
<path d="M34.061 30.6203C35.1524 30.6203 36.0371 29.7355 36.0371 28.6442C36.0371 27.5528 35.1524 26.6681 34.061 26.6681C32.9697 26.6681 32.085 27.5528 32.085 28.6442C32.085 29.7355 32.9697 30.6203 34.061 30.6203Z" fill="#ABABAB"/>
<path d="M39.5208 23.8459H37.776C37.6688 23.8459 37.5661 23.8885 37.4904 23.9642C37.4146 24.04 37.3721 24.1427 37.3721 24.2498V26.9606H39.5208L39.5208 23.8459Z" fill="#FFC300"/>
<path d="M34.0933 28.6442C34.0933 27.9195 34.4836 27.2864 35.0652 26.9424C34.7612 26.7624 34.4143 26.6677 34.061 26.6681C32.9697 26.6681 32.085 27.5528 32.085 28.6442C32.085 29.7356 32.9697 30.6203 34.061 30.6203C34.4278 30.6203 34.7709 30.52 35.0652 30.3459C34.4836 30.0021 34.0933 29.3689 34.0933 28.6442Z" fill="white"/>
<path d="M25.4291 21.6628V28.6435H14.5645V22.4875L18.8938 17.7889C19.0825 17.584 19.3486 17.4678 19.6273 17.4678H24.4314C24.9824 17.4678 25.4291 17.9138 25.4291 18.4648V21.6628Z" fill="#FFC300"/>
<path d="M17.6792 24.3617C18.1404 24.28 18.5621 24.0492 18.8795 23.7048L22.7195 19.5372C22.9082 19.3323 23.1743 19.2161 23.453 19.2161H25.4291V18.4648C25.4291 17.9142 24.9827 17.4678 24.432 17.4678H19.6273C19.3486 17.4678 19.0825 17.584 18.8938 17.7889L14.5645 22.4875V24.9134L17.6792 24.3617ZM14.5645 26.9592H25.4291V28.6435H14.5645V26.9592Z" fill="#FFC300"/>
<path d="M23.5542 22.4893V19.3436H20.0109L17.32 22.2639C17.2407 22.35 17.3018 22.4893 17.4188 22.4893H23.5542Z" fill="white"/>
<path d="M20.0109 19.3436L17.32 22.2639C17.2407 22.35 17.3018 22.4893 17.4188 22.4893H20.0007L22.7191 19.5392C22.7912 19.4611 22.8753 19.3951 22.9683 19.3436H20.0109Z" fill="white"/>
<path d="M14.5642 22.4899L9.40772 23.4032C9.14452 23.4501 8.9062 23.588 8.73452 23.7929C8.56284 23.9979 8.46875 24.2567 8.46875 24.524L8.94979 24.8644L8.98484 26.0396L8.46881 26.2843V28.5091C8.46881 28.5847 8.53004 28.6459 8.60563 28.6459H14.5643L18.0355 27.6139V23.2548L14.5642 22.4899Z" fill="#FFC300"/>
<path d="M8.46875 26.2837H9.3345C9.82066 26.2837 10.2147 25.8896 10.2147 25.4034C10.2147 24.9173 9.82066 24.5232 9.3345 24.5232H8.46875V26.2837Z" fill="#FEDF30"/>
<path d="M12.7808 30.6203C13.8721 30.6203 14.7568 29.7355 14.7568 28.6442C14.7568 27.5528 13.8721 26.6681 12.7808 26.6681C11.6894 26.6681 10.8047 27.5528 10.8047 28.6442C10.8047 29.7355 11.6894 30.6203 12.7808 30.6203Z" fill="#ABABAB"/>
<path d="M12.813 28.6442C12.813 27.9195 13.2033 27.2864 13.785 26.9424C13.4809 26.7624 13.1341 26.6677 12.7808 26.6681C11.6894 26.6681 10.8047 27.5528 10.8047 28.6442C10.8047 29.7356 11.6894 30.6203 12.7808 30.6203C13.1475 30.6203 13.4906 30.52 13.785 30.3459C13.2033 30.0021 12.813 29.3689 12.813 28.6442Z" fill="white"/>
<path d="M39.1058 21.1999L37.6928 21.1947C37.4113 21.1923 37.1921 21.4361 37.226 21.7216C37.2541 21.9588 37.4672 22.131 37.7059 22.1319L39.0627 22.1369L39.0582 23.377H37.7753C37.2935 23.377 36.9029 23.7676 36.9029 24.2494V26.4916H35.2171C34.8619 26.2999 34.4644 26.1997 34.0607 26.2001C33.6569 26.1997 33.2594 26.2999 32.9041 26.4917L32.9027 26.4916H25.8972V22.1323H35.6637C35.9033 22.1323 36.1176 21.9602 36.1465 21.7224C36.1548 21.6564 36.149 21.5894 36.1294 21.5259C36.1098 21.4624 36.0769 21.4037 36.033 21.3538C35.989 21.304 35.9349 21.264 35.8743 21.2367C35.8137 21.2093 35.748 21.1952 35.6815 21.1952H25.8972V18.4658C25.8972 17.6563 25.2409 17 24.4314 17H19.6268C19.4242 17.0002 19.2239 17.0423 19.0384 17.1237C18.8529 17.205 18.6862 17.3238 18.5488 17.4725L17.384 18.7367C17.2337 18.8997 17.205 19.149 17.3328 19.3302C17.3727 19.3881 17.4252 19.4363 17.4863 19.4712C17.5475 19.5061 17.6156 19.5267 17.6858 19.5317C17.756 19.5367 17.8264 19.5258 17.8918 19.4998C17.9572 19.4739 18.016 19.4336 18.0637 19.3818L19.2379 18.1075C19.2874 18.0538 19.3475 18.0109 19.4145 17.9816C19.4814 17.9522 19.5536 17.9371 19.6267 17.9371H24.4313C24.5715 17.9371 24.706 17.9928 24.8052 18.092C24.9044 18.1911 24.9601 18.3256 24.9601 18.4659V26.4916H18.5049C18.2654 26.4916 18.0511 26.6637 18.0222 26.9015C18.0139 26.9675 18.0197 27.0345 18.0393 27.098C18.0589 27.1615 18.0917 27.2202 18.1357 27.2701C18.1797 27.3199 18.2338 27.3599 18.2944 27.3872C18.355 27.4146 18.4207 27.4287 18.4872 27.4287H24.9601V28.1763H15.2392C15.2046 28.1763 15.1748 28.1521 15.1682 28.1181C15.1347 27.9469 15.0683 27.6096 15.0429 27.4806C15.0417 27.4743 15.0419 27.4678 15.0435 27.4615C15.045 27.4553 15.048 27.4495 15.0521 27.4445C15.0562 27.4396 15.0613 27.4356 15.0671 27.4328C15.073 27.4301 15.0793 27.4287 15.0857 27.4287H16.4726C16.7122 27.4287 16.9265 27.2567 16.9554 27.0188C16.9637 26.9529 16.9578 26.8859 16.9383 26.8224C16.9187 26.7588 16.8858 26.7002 16.8419 26.6503C16.7979 26.6004 16.7438 26.5605 16.6832 26.5331C16.6226 26.5058 16.5569 26.4916 16.4904 26.4916H15.0327V22.6714L16.6986 20.8633C16.8609 20.6872 16.8796 20.413 16.7243 20.2306C16.6814 20.1798 16.6282 20.1387 16.5683 20.11C16.5083 20.0814 16.4429 20.0658 16.3764 20.0644C16.3099 20.0629 16.2439 20.0756 16.1827 20.1016C16.1215 20.1276 16.0666 20.1664 16.0215 20.2152L14.3268 22.0546L9.32611 22.9407C8.95429 23.0062 8.61747 23.2007 8.37491 23.49C8.13235 23.7793 7.99959 24.1449 8 24.5224V28.508C8 28.8423 8.27101 29.1132 8.60524 29.1132H10.3813C10.6006 30.2378 11.5927 31.0893 12.7804 31.0893C13.9682 31.0893 14.9603 30.2378 15.1795 29.1132H31.6616C31.8809 30.2378 32.873 31.0893 34.0608 31.0893C35.2504 31.0893 36.2437 30.235 36.4608 29.1078L38.9799 29.1176H38.9864C39.148 29.1176 39.3092 29.0822 39.4505 29.0037C39.7848 28.818 39.9766 28.4875 39.9779 28.1269L40 22.1005C40.0017 21.6058 39.6005 21.2017 39.1058 21.1999ZM37.84 24.314H39.0547L39.0468 26.4915H37.8401V24.314H37.84ZM25.8972 27.4287H31.9413C31.8074 27.6607 31.7129 27.9133 31.6615 28.1762H25.8972V27.4287ZM8.93709 24.991H9.32155C9.51616 24.991 9.69433 25.1203 9.73594 25.3104C9.74966 25.3707 9.74962 25.4334 9.73584 25.4937C9.72205 25.5541 9.69486 25.6105 9.65629 25.6589C9.61771 25.7073 9.56874 25.7465 9.51301 25.7734C9.45727 25.8003 9.39619 25.8143 9.3343 25.8144H8.93709V24.991ZM8.93709 26.7515H9.30306C10.005 26.7515 10.6136 26.2277 10.6773 25.5286C10.7503 24.7285 10.1196 24.0539 9.33423 24.0539H9.12839C9.22593 23.9542 9.35222 23.8877 9.48954 23.8635L14.0956 23.0473V26.5857C13.7033 26.3336 13.2467 26.1998 12.7804 26.2001C11.5927 26.2001 10.6006 27.0517 10.3813 28.1762H8.93709V26.7515ZM12.9032 30.1474C11.9755 30.2213 11.2039 29.4497 11.2778 28.5219C11.3359 27.7918 11.9273 27.2004 12.6574 27.1421C13.5852 27.0681 14.3571 27.8399 14.283 28.7678C14.2249 29.4979 13.6334 30.0893 12.9032 30.1474ZM34.1835 30.1474C33.2558 30.2213 32.4842 29.4497 32.558 28.5219C32.6161 27.7918 33.2076 27.2004 33.9376 27.1421C34.8655 27.0681 35.6373 27.8399 35.5633 28.7678C35.5051 29.4979 34.9136 30.0893 34.1835 30.1474ZM38.9834 28.1807L36.4588 28.1708C36.4072 27.9098 36.313 27.6591 36.18 27.4287H39.0433L39.0408 28.1236C39.0407 28.1394 38.9987 28.182 38.9834 28.1807Z" fill="black"/>
<path d="M24.0235 19.3412C24.0235 19.217 23.9741 19.0978 23.8862 19.0099C23.7984 18.922 23.6792 18.8727 23.5549 18.8727H20.0116C19.9469 18.8727 19.8828 18.8861 19.8235 18.9121C19.7642 18.9381 19.7109 18.9761 19.667 19.0237L16.7685 22.1694C16.7068 22.2364 16.666 22.3199 16.6509 22.4096C16.6359 22.4994 16.6474 22.5916 16.6839 22.675C16.7205 22.7584 16.7805 22.8293 16.8567 22.8791C16.9329 22.9289 17.022 22.9555 17.113 22.9555H23.5549C23.6791 22.9555 23.7983 22.9061 23.8862 22.8182C23.974 22.7304 24.0234 22.6112 24.0234 22.4869V19.3412H24.0235ZM23.0864 22.0184H18.1819L20.2171 19.8098H23.0864V22.0184ZM23.5549 23.9459H22.6511C22.3923 23.9459 22.1826 24.1557 22.1826 24.4145C22.1826 24.6732 22.3923 24.883 22.6511 24.883H23.5549C23.8138 24.883 24.0235 24.6732 24.0235 24.4145C24.0235 24.1557 23.8138 23.9459 23.5549 23.9459Z" fill="black"/>
</svg>
