<svg width="48" height="56" viewBox="0 0 48 56" fill="none" xmlns="http://www.w3.org/2000/svg">
<mask id="path-1-inside-1_8532_189908" fill="white">
<path d="M24 0C37.2548 0 48 10.7452 48 24C48 35.9532 39.2613 45.8638 27.8242 47.6953L23.3193 56L18.873 47.4492C8.0818 45.1007 0 35.4951 0 24C0 10.7452 10.7452 0 24 0Z"/>
</mask>
<path d="M24 0C37.2548 0 48 10.7452 48 24C48 35.9532 39.2613 45.8638 27.8242 47.6953L23.3193 56L18.873 47.4492C8.0818 45.1007 0 35.4951 0 24C0 10.7452 10.7452 0 24 0Z" fill="white"/>
<path d="M27.8242 47.6953L27.6661 46.7079L27.18 46.7857L26.9452 47.2185L27.8242 47.6953ZM23.3193 56L22.4321 56.4613L23.3007 58.1317L24.1983 56.4768L23.3193 56ZM18.873 47.4492L19.7603 46.9879L19.5439 46.5718L19.0857 46.4721L18.873 47.4492ZM24 0V1C36.7025 1 47 11.2975 47 24H48H49C49 10.1929 37.8071 -1 24 -1V0ZM48 24H47C47 35.4541 38.6259 44.9528 27.6661 46.7079L27.8242 47.6953L27.9823 48.6827C39.8967 46.7748 49 36.4523 49 24H48ZM27.8242 47.6953L26.9452 47.2185L22.4403 55.5232L23.3193 56L24.1983 56.4768L28.7032 48.1721L27.8242 47.6953ZM23.3193 56L24.2066 55.5387L19.7603 46.9879L18.873 47.4492L17.9858 47.9106L22.4321 56.4613L23.3193 56ZM18.873 47.4492L19.0857 46.4721C8.74423 44.2215 1 35.0148 1 24H0H-1C-1 35.9754 7.41938 45.98 18.6604 48.4263L18.873 47.4492ZM0 24H1C1 11.2975 11.2975 1 24 1V0V-1C10.1929 -1 -1 10.1929 -1 24H0Z" fill="#313131" mask="url(#path-1-inside-1_8532_189908)"/>
<rect x="4" y="4" width="40" height="40" rx="20" fill="#79CCFF"/>
<path fill-rule="evenodd" clip-rule="evenodd" d="M25.7886 17.8442C26.9143 18.9699 26.9143 20.7948 25.7886 21.9205C24.663 23.0461 22.838 23.0461 21.7124 21.9205C20.5868 20.7948 20.5868 18.9699 21.7124 17.8442C22.838 16.7186 24.663 16.7186 25.7886 17.8442Z" fill="#0051FF"/>
<path fill-rule="evenodd" clip-rule="evenodd" d="M17.1621 28.353V29.1765C17.1621 29.6311 17.531 30 17.9856 30H29.515C29.9696 30 30.3386 29.6311 30.3386 29.1765V28.353C30.3386 25.861 27.084 24.2419 23.7503 24.2419C20.4167 24.2419 17.1621 25.861 17.1621 28.353Z" fill="#0051FF"/>
</svg>
